<svg width="32" height="32" viewBox="0 0 32 32" fill="none" xmlns="http://www.w3.org/2000/svg">
  <defs>
    <linearGradient id="grad" x1="0%" y1="0%" x2="100%" y2="100%">
      <stop offset="0%" style="stop-color:#6366f1;stop-opacity:1" />
      <stop offset="50%" style="stop-color:#a855f7;stop-opacity:1" />
      <stop offset="100%" style="stop-color:#ec4899;stop-opacity:1" />
    </linearGradient>
  </defs>
  <path d="M10 8C7.79086 8 6 9.79086 6 12C6 14.2091 7.79086 16 10 16H22C24.2091 16 26 17.7909 26 20C26 22.2091 24.2091 24 22 24H10C7.79086 24 6 22.2091 6 20" stroke="url(#grad)" stroke-width="2.5" stroke-linecap="round"/>
  <path d="M18 10C18 8.89543 18.8954 8 20 8H24C25.1046 8 26 8.89543 26 10C26 11.1046 25.1046 12 24 12H20C18.8954 12 18 11.1046 18 10Z" fill="url(#grad)"/>
  <path d="M21 10H23M9 20H11" stroke="white" stroke-width="1.2" stroke-linecap="round"/>
</svg>
